<svg xmlns="http://www.w3.org/2000/svg" xmlns:xlink="http://www.w3.org/1999/xlink" viewBox="0 0 425.2 246.61">
  <defs>
    <style>
      .cls-1 {
        fill: url(#Nepojmenovaný_přechod_11);
      }
    </style>
    <linearGradient id="Nepojmenovaný_přechod_11" data-name="Nepojmenovaný přechod 11" x1="150.35" y1="231.97" x2="260.48" y2="41.22" gradientUnits="userSpaceOnUse">
      <stop offset="0" stop-color="#432c79"/>
      <stop offset="0.08" stop-color="#4c2a74"/>
      <stop offset="0.22" stop-color="#642665"/>
      <stop offset="0.4" stop-color="#8c1e4e"/>
      <stop offset="0.6" stop-color="#c3142d"/>
      <stop offset="0.6" stop-color="#c3142d"/>
      <stop offset="1" stop-color="#c3142d"/>
    </linearGradient>
  </defs>
  <g id="loga">
    <path class="cls-1" d="M76.1,152.44a17.68,17.68,0,0,1,13.57,5.81l-5.34,5.07a11.74,11.74,0,0,0-8.23-3.54c-5.65,0-9.3,4.22-9.3,9.56s3.65,9.55,9.3,9.55a11.77,11.77,0,0,0,8.23-3.53l5.18,5.07a18,18,0,0,1-13.41,5.8c-10,0-17.16-7.44-17.16-16.89S66.06,152.44,76.1,152.44Zm17.31,1.06h7.76v31.68H93.41Zm18.43,6.86h-7.08V153.5h22.08v6.86h-7.19v24.82h-7.81ZM140,169.87,128.79,153.5h8.76l6.34,9.5,6.39-9.5H159l-11.25,16.37v15.31H140Zm35.12-16.37h12.77c5.28,0,9.51,3.9,9.51,8.87a7.54,7.54,0,0,1-3.43,6.49V169c3.27,2.32,4.64,4.54,4.64,7.81,0,4.39-3.48,8.4-9.5,8.4h-14Zm11.4,12.62a2.93,2.93,0,1,0,0-5.86h-3.7v5.86Zm1,12.14a2.67,2.67,0,0,0,3-2.74,2.79,2.79,0,0,0-3-2.8h-4.7v5.54Zm14.84-24.76h13.25c6.81,0,11.25,4.12,11.25,10.08,0,5.55-2.8,8.66-7.5,9.82L228,185.18h-9.72l-8.08-11.83v11.83h-7.76Zm14,13.73c1.74,0,2.91-1.8,2.91-3.65a3.35,3.35,0,0,0-3.12-3.48h-6v7.13Zm14.31-13.73h8.18l12.31,18.79V153.5h7.71v31.68h-8.08l-12.36-18.85v18.85h-7.76Zm50.63-1.06a16.57,16.57,0,0,1,17.06,16.9c0,9.45-7.08,16.89-17.06,16.89s-17.05-7.44-17.05-16.89S271.29,152.44,281.32,152.44Zm0,26.45c5.6,0,9.19-4.22,9.19-9.55s-3.59-9.56-9.19-9.56-9.18,4.22-9.18,9.56S275.67,178.89,281.32,178.89ZM323,143.31H283.18V102.43a19,19,0,0,1,36.93-5.11,19,19,0,0,1,.86,8.18,19,19,0,0,1,8.17.81,19,19,0,0,1-5.64,37ZM290.51,136h32.94a11.69,11.69,0,0,0,8-3.4,11.64,11.64,0,0,0-14.35-18.14,3.66,3.66,0,0,1-5.05-5,11.63,11.63,0,0,0,1.1-9.76,11.62,11.62,0,0,0-22.07,0,11.67,11.67,0,0,0-.58,3Zm44.93,17.23a30.24,30.24,0,0,0,10.8-7.51A31,31,0,0,0,353,134.05a2.87,2.87,0,1,0-5.46-1.74,25.21,25.21,0,0,1-5.52,9.48,24.71,24.71,0,0,1-8.78,6.12,2.86,2.86,0,0,0,1.09,5.51A2.83,2.83,0,0,0,335.44,153.2ZM278,94.79a24.68,24.68,0,0,1,6.73-10.33,25.31,25.31,0,0,1,9.07-5.35A2.86,2.86,0,1,0,292,73.68a31,31,0,0,0-11.14,6.56,30.5,30.5,0,0,0-8.28,12.69,2.87,2.87,0,0,0,1.79,3.64,2.76,2.76,0,0,0,.93.16A2.87,2.87,0,0,0,278,94.79ZM264.9,94.5c.27-1.2.61-2.4,1-3.56a37.33,37.33,0,0,1,10.24-15.82A37.81,37.81,0,0,1,293.51,66a2.86,2.86,0,0,0-1.25-5.59,43.55,43.55,0,0,0-20,10.45,43,43,0,0,0-11.79,18.23c-.45,1.33-.83,2.71-1.15,4.09a2.86,2.86,0,0,0,2.16,3.43,2.74,2.74,0,0,0,.64.08A2.88,2.88,0,0,0,264.9,94.5Zm67.73,72.8a45.49,45.49,0,0,0,4.58-1.23,43.09,43.09,0,0,0,18.34-11.75,43.58,43.58,0,0,0,10.65-20.54,2.87,2.87,0,0,0-5.61-1.19,37.71,37.71,0,0,1-9.25,17.83,37.88,37.88,0,0,1-19.89,11.27,2.87,2.87,0,0,0,.59,5.67A3,3,0,0,0,332.63,167.3Zm-74.94-58.41c10.14,0,17.34,7.57,17.34,17.18s-7.2,17.18-17.34,17.18-17.35-7.57-17.35-17.18,7.14-17.18,17.35-17.18m0,26.9c5.69,0,9.34-4.3,9.34-9.72s-3.65-9.72-9.34-9.72-9.35,4.3-9.35,9.72,3.6,9.72,9.35,9.72M59,142.45h7.9V129.73H79.52v12.72h7.84V110.24H79.52v12.67H66.91V110.24H59Zm33.92,0h7.89V110.24H92.93Zm40.51-32.14h13.48c6.92,0,11.43,4.19,11.43,10.26,0,5.63-2.84,8.8-7.62,10l8.69,12h-9.87l-8.22-12v12h-7.89Zm14.23,14c1.77,0,3-1.83,3-3.7a3.41,3.41,0,0,0-3.17-3.55h-6.12v7.25Zm49.69-14h11.22c9.5,0,16.86,7,16.86,16.06,0,8.59-6.56,16.15-16.86,16.15H197.36Zm11,25a8.94,8.94,0,0,0,0-17.88h-3.16v17.88Zm20.45,7.2h7.89V110.31h-7.89Zm-48.28-32.22h-5.86l-13.45,32.21h8.48l1.56-3.32H184l1.61,3.32h8.48Zm-6.8,21.6,3.86-11,3.71,11Zm1.6-24.6h5.29l3.71-5.94h-6.57Zm-61.93,9.89H105.2v-7h24.53v7h-8.35v25.18h-7.93Z"/>
  </g>
</svg>
